<mxfile host="Electron" modified="2023-11-04T07:57:39.483Z" agent="Mozilla/5.0 (Windows NT 10.0; Win64; x64) AppleWebKit/537.36 (KHTML, like Gecko) draw.io/21.2.8 Chrome/112.0.5615.165 Electron/24.2.0 Safari/537.36" etag="AwMnIxYoECQc6NtV6oRY" version="21.2.8" type="device">
  <diagram name="Page-1" id="Zy2wtVYq44WXkhXmX46X">
    <mxGraphModel dx="1663" dy="626" grid="1" gridSize="10" guides="1" tooltips="1" connect="1" arrows="1" fold="1" page="1" pageScale="1" pageWidth="827" pageHeight="1169" math="0" shadow="0">
      <root>
        <mxCell id="0" />
        <mxCell id="1" parent="0" />
        <mxCell id="ELrdVOIZssV8SabgfhjN-1" value="&lt;font style=&quot;font-size: 16px;&quot;&gt;head&lt;/font&gt;" style="rounded=0;whiteSpace=wrap;html=1;fillColor=#f8cecc;strokeColor=#100f0f;strokeWidth=2;" vertex="1" parent="1">
          <mxGeometry x="80" y="160" width="70" height="40" as="geometry" />
        </mxCell>
        <mxCell id="ELrdVOIZssV8SabgfhjN-2" value="&lt;font style=&quot;font-size: 16px;&quot;&gt;quicklist&lt;/font&gt;" style="rounded=0;whiteSpace=wrap;html=1;fillColor=#f8cecc;strokeColor=#100f0f;strokeWidth=2;" vertex="1" parent="1">
          <mxGeometry x="150" y="160" width="170" height="40" as="geometry" />
        </mxCell>
        <mxCell id="ELrdVOIZssV8SabgfhjN-3" value="&lt;font style=&quot;font-size: 16px;&quot;&gt;tail&lt;/font&gt;" style="rounded=0;whiteSpace=wrap;html=1;fillColor=#f8cecc;strokeColor=#100f0f;strokeWidth=2;" vertex="1" parent="1">
          <mxGeometry x="320" y="160" width="70" height="40" as="geometry" />
        </mxCell>
        <mxCell id="ELrdVOIZssV8SabgfhjN-4" value="&lt;font style=&quot;font-size: 16px;&quot;&gt;quicklistNode&lt;/font&gt;" style="rounded=0;whiteSpace=wrap;html=1;fillColor=#d5e8d4;strokeColor=#121211;strokeWidth=2;" vertex="1" parent="1">
          <mxGeometry x="-80" y="280" width="170" height="40" as="geometry" />
        </mxCell>
        <mxCell id="ELrdVOIZssV8SabgfhjN-5" value="&lt;font style=&quot;font-size: 14px;&quot;&gt;prev&lt;/font&gt;" style="rounded=0;whiteSpace=wrap;html=1;strokeWidth=2;fillColor=#fff2cc;strokeColor=#0d0d0c;" vertex="1" parent="1">
          <mxGeometry x="-80" y="320" width="50" height="40" as="geometry" />
        </mxCell>
        <mxCell id="ELrdVOIZssV8SabgfhjN-6" value="&lt;font style=&quot;font-size: 14px;&quot;&gt;next&lt;/font&gt;" style="rounded=0;whiteSpace=wrap;html=1;strokeWidth=2;fillColor=#fff2cc;strokeColor=#0d0d0c;" vertex="1" parent="1">
          <mxGeometry x="40" y="320" width="50" height="40" as="geometry" />
        </mxCell>
        <mxCell id="ELrdVOIZssV8SabgfhjN-10" style="edgeStyle=orthogonalEdgeStyle;rounded=0;orthogonalLoop=1;jettySize=auto;html=1;exitX=0.5;exitY=1;exitDx=0;exitDy=0;entryX=0.5;entryY=0;entryDx=0;entryDy=0;strokeWidth=2;" edge="1" parent="1" source="ELrdVOIZssV8SabgfhjN-7" target="ELrdVOIZssV8SabgfhjN-8">
          <mxGeometry relative="1" as="geometry" />
        </mxCell>
        <mxCell id="ELrdVOIZssV8SabgfhjN-7" value="&lt;font style=&quot;font-size: 14px;&quot;&gt;zl&lt;/font&gt;" style="rounded=0;whiteSpace=wrap;html=1;strokeWidth=2;fillColor=#fff2cc;strokeColor=#0d0d0c;" vertex="1" parent="1">
          <mxGeometry x="-30" y="320" width="70" height="40" as="geometry" />
        </mxCell>
        <mxCell id="ELrdVOIZssV8SabgfhjN-8" value="&lt;font style=&quot;font-size: 14px;&quot;&gt;ziplist&lt;/font&gt;" style="rounded=0;whiteSpace=wrap;html=1;strokeWidth=2;fillColor=#dae8fc;strokeColor=#000000;" vertex="1" parent="1">
          <mxGeometry x="-30" y="410" width="70" height="40" as="geometry" />
        </mxCell>
        <mxCell id="ELrdVOIZssV8SabgfhjN-9" value="" style="curved=1;endArrow=classic;html=1;rounded=0;exitX=0;exitY=0.5;exitDx=0;exitDy=0;entryX=0.5;entryY=0;entryDx=0;entryDy=0;strokeWidth=2;" edge="1" parent="1" source="ELrdVOIZssV8SabgfhjN-1" target="ELrdVOIZssV8SabgfhjN-4">
          <mxGeometry width="50" height="50" relative="1" as="geometry">
            <mxPoint x="230" y="400" as="sourcePoint" />
            <mxPoint x="280" y="350" as="targetPoint" />
            <Array as="points">
              <mxPoint x="20" y="180" />
              <mxPoint x="-10" y="230" />
            </Array>
          </mxGeometry>
        </mxCell>
        <mxCell id="ELrdVOIZssV8SabgfhjN-11" value="&lt;font style=&quot;font-size: 16px;&quot;&gt;quicklistNode&lt;/font&gt;" style="rounded=0;whiteSpace=wrap;html=1;fillColor=#d5e8d4;strokeColor=#121211;strokeWidth=2;" vertex="1" parent="1">
          <mxGeometry x="150" y="280" width="170" height="40" as="geometry" />
        </mxCell>
        <mxCell id="ELrdVOIZssV8SabgfhjN-12" value="&lt;font style=&quot;font-size: 14px;&quot;&gt;prev&lt;/font&gt;" style="rounded=0;whiteSpace=wrap;html=1;strokeWidth=2;fillColor=#fff2cc;strokeColor=#0d0d0c;" vertex="1" parent="1">
          <mxGeometry x="150" y="320" width="50" height="40" as="geometry" />
        </mxCell>
        <mxCell id="ELrdVOIZssV8SabgfhjN-13" value="&lt;font style=&quot;font-size: 14px;&quot;&gt;next&lt;/font&gt;" style="rounded=0;whiteSpace=wrap;html=1;strokeWidth=2;fillColor=#fff2cc;strokeColor=#0d0d0c;" vertex="1" parent="1">
          <mxGeometry x="270" y="320" width="50" height="40" as="geometry" />
        </mxCell>
        <mxCell id="ELrdVOIZssV8SabgfhjN-27" style="edgeStyle=orthogonalEdgeStyle;rounded=0;orthogonalLoop=1;jettySize=auto;html=1;exitX=0.5;exitY=1;exitDx=0;exitDy=0;entryX=0.5;entryY=0;entryDx=0;entryDy=0;strokeWidth=2;" edge="1" parent="1" source="ELrdVOIZssV8SabgfhjN-14" target="ELrdVOIZssV8SabgfhjN-26">
          <mxGeometry relative="1" as="geometry" />
        </mxCell>
        <mxCell id="ELrdVOIZssV8SabgfhjN-14" value="&lt;font style=&quot;font-size: 14px;&quot;&gt;zl&lt;/font&gt;" style="rounded=0;whiteSpace=wrap;html=1;strokeWidth=2;fillColor=#fff2cc;strokeColor=#0d0d0c;" vertex="1" parent="1">
          <mxGeometry x="200" y="320" width="70" height="40" as="geometry" />
        </mxCell>
        <mxCell id="ELrdVOIZssV8SabgfhjN-15" value="" style="endArrow=classic;startArrow=classic;html=1;rounded=0;exitX=1;exitY=0.5;exitDx=0;exitDy=0;entryX=0;entryY=0.5;entryDx=0;entryDy=0;strokeWidth=2;" edge="1" parent="1" source="ELrdVOIZssV8SabgfhjN-6" target="ELrdVOIZssV8SabgfhjN-12">
          <mxGeometry width="50" height="50" relative="1" as="geometry">
            <mxPoint x="230" y="400" as="sourcePoint" />
            <mxPoint x="280" y="350" as="targetPoint" />
          </mxGeometry>
        </mxCell>
        <mxCell id="ELrdVOIZssV8SabgfhjN-16" value="&lt;font style=&quot;font-size: 16px;&quot;&gt;quicklistNode&lt;/font&gt;" style="rounded=0;whiteSpace=wrap;html=1;fillColor=#d5e8d4;strokeColor=#121211;strokeWidth=2;" vertex="1" parent="1">
          <mxGeometry x="380" y="280" width="170" height="40" as="geometry" />
        </mxCell>
        <mxCell id="ELrdVOIZssV8SabgfhjN-17" value="&lt;font style=&quot;font-size: 14px;&quot;&gt;prev&lt;/font&gt;" style="rounded=0;whiteSpace=wrap;html=1;strokeWidth=2;fillColor=#fff2cc;strokeColor=#0d0d0c;" vertex="1" parent="1">
          <mxGeometry x="380" y="320" width="50" height="40" as="geometry" />
        </mxCell>
        <mxCell id="ELrdVOIZssV8SabgfhjN-18" value="&lt;font style=&quot;font-size: 14px;&quot;&gt;next&lt;/font&gt;" style="rounded=0;whiteSpace=wrap;html=1;strokeWidth=2;fillColor=#fff2cc;strokeColor=#0d0d0c;" vertex="1" parent="1">
          <mxGeometry x="500" y="320" width="50" height="40" as="geometry" />
        </mxCell>
        <mxCell id="ELrdVOIZssV8SabgfhjN-19" value="&lt;font style=&quot;font-size: 14px;&quot;&gt;zl&lt;/font&gt;" style="rounded=0;whiteSpace=wrap;html=1;strokeWidth=2;fillColor=#fff2cc;strokeColor=#0d0d0c;" vertex="1" parent="1">
          <mxGeometry x="430" y="320" width="70" height="40" as="geometry" />
        </mxCell>
        <mxCell id="ELrdVOIZssV8SabgfhjN-20" value="" style="endArrow=classic;startArrow=classic;html=1;rounded=0;exitX=1;exitY=0.5;exitDx=0;exitDy=0;entryX=0;entryY=0.5;entryDx=0;entryDy=0;strokeWidth=2;" edge="1" parent="1" target="ELrdVOIZssV8SabgfhjN-17">
          <mxGeometry width="50" height="50" relative="1" as="geometry">
            <mxPoint x="320" y="340" as="sourcePoint" />
            <mxPoint x="510" y="350" as="targetPoint" />
          </mxGeometry>
        </mxCell>
        <mxCell id="ELrdVOIZssV8SabgfhjN-21" value="" style="curved=1;endArrow=classic;html=1;rounded=0;exitX=1;exitY=0.5;exitDx=0;exitDy=0;entryX=0.5;entryY=0;entryDx=0;entryDy=0;strokeWidth=2;" edge="1" parent="1" source="ELrdVOIZssV8SabgfhjN-3" target="ELrdVOIZssV8SabgfhjN-16">
          <mxGeometry width="50" height="50" relative="1" as="geometry">
            <mxPoint x="459" y="180" as="sourcePoint" />
            <mxPoint x="384" y="280" as="targetPoint" />
            <Array as="points">
              <mxPoint x="470" y="180" />
              <mxPoint x="500" y="230" />
            </Array>
          </mxGeometry>
        </mxCell>
        <mxCell id="ELrdVOIZssV8SabgfhjN-23" style="edgeStyle=orthogonalEdgeStyle;rounded=0;orthogonalLoop=1;jettySize=auto;html=1;exitX=0.5;exitY=1;exitDx=0;exitDy=0;entryX=0.5;entryY=0;entryDx=0;entryDy=0;strokeWidth=2;" edge="1" parent="1" target="ELrdVOIZssV8SabgfhjN-24">
          <mxGeometry relative="1" as="geometry">
            <mxPoint x="465" y="360" as="sourcePoint" />
          </mxGeometry>
        </mxCell>
        <mxCell id="ELrdVOIZssV8SabgfhjN-24" value="&lt;font style=&quot;font-size: 14px;&quot;&gt;ziplist&lt;/font&gt;" style="rounded=0;whiteSpace=wrap;html=1;strokeWidth=2;fillColor=#dae8fc;strokeColor=#000000;" vertex="1" parent="1">
          <mxGeometry x="430" y="410" width="70" height="40" as="geometry" />
        </mxCell>
        <mxCell id="ELrdVOIZssV8SabgfhjN-26" value="&lt;font style=&quot;font-size: 14px;&quot;&gt;quicklistLZF&lt;/font&gt;" style="rounded=0;whiteSpace=wrap;html=1;strokeWidth=2;fillColor=#bac8d3;strokeColor=#000000;" vertex="1" parent="1">
          <mxGeometry x="180" y="410" width="110" height="40" as="geometry" />
        </mxCell>
      </root>
    </mxGraphModel>
  </diagram>
</mxfile>
